<svg version="1.1" id="Layer_1" xmlns="http://www.w3.org/2000/svg" xmlns:xlink="http://www.w3.org/1999/xlink" x="0px" y="0px" width="100%" viewBox="0 0 374 249" xml:space="preserve">
<path fill="#191F32" opacity="1.000000" stroke="none" d="&#xA;M1.000001,178.468658&#xA;&#x9;C1.688143,177.197479 2.669322,176.505783 3.020948,175.575989&#xA;&#x9;C9.404071,158.697510 21.711843,148.673904 39.130043,145.121658&#xA;&#x9;C48.488544,143.213120 58.165264,142.847641 67.506783,140.877411&#xA;&#x9;C79.711952,138.303192 89.916199,131.556442 99.675453,123.939751&#xA;&#x9;C110.990547,115.108803 119.354568,103.903183 125.028717,91.095688&#xA;&#x9;C128.937180,82.273643 131.485016,72.520081 132.749908,62.933338&#xA;&#x9;C134.601440,48.900452 136.596252,35.567970 147.400253,24.915564&#xA;&#x9;C160.321762,12.175372 175.494705,8.581501 192.678268,12.069199&#xA;&#x9;C212.277771,16.047258 225.671646,32.884037 228.198730,51.187004&#xA;&#x9;C230.437012,67.398170 225.898331,81.181107 215.387589,92.749557&#xA;&#x9;C207.985413,100.896637 197.813004,105.370659 186.583069,105.944740&#xA;&#x9;C151.527328,107.736801 125.245743,124.106361 107.101868,153.732788&#xA;&#x9;C99.641487,165.914536 96.431320,179.369644 95.824829,193.803375&#xA;&#x9;C94.902451,215.754868 80.543152,234.241150 58.310936,238.896912&#xA;&#x9;C35.744545,243.622681 12.880526,233.834213 3.538067,210.072495&#xA;&#x9;C2.999092,208.701691 2.380183,207.362305 1.399236,206.004150&#xA;&#x9;C1.000000,196.979111 1.000000,187.958206 1.000001,178.468658&#xA;z"></path>
<path fill="#191F32" opacity="1.000000" stroke="none" d="&#xA;M1.000000,44.468658&#xA;&#x9;C1.671921,43.362690 2.541840,42.839355 2.984623,42.070145&#xA;&#x9;C6.726472,35.569778 9.171102,27.713512 14.405622,22.845449&#xA;&#x9;C20.137600,17.514751 28.035061,13.392330 35.675919,11.459098&#xA;&#x9;C53.602905,6.923348 70.355446,10.355319 83.633522,24.220697&#xA;&#x9;C101.381149,42.753304 101.723389,72.645485 83.352478,91.246910&#xA;&#x9;C72.428970,102.307465 59.211864,107.523651 44.122322,105.801254&#xA;&#x9;C24.063766,103.511665 9.938890,92.588737 2.955896,73.198242&#xA;&#x9;C2.784192,72.721443 2.180711,72.400154 1.389305,72.003166&#xA;&#x9;C1.000000,62.979103 1.000000,53.958210 1.000000,44.468658&#xA;z"></path>
<path fill="#191F32" opacity="1.000000" stroke="none" d="&#xA;M180.028305,240.000000&#xA;&#x9;C156.852783,239.654587 137.846664,225.075668 133.918365,202.433487&#xA;&#x9;C130.640747,183.541809 135.387573,167.547699 149.795425,154.803543&#xA;&#x9;C156.617950,148.768829 164.985565,145.540451 174.010849,145.087616&#xA;&#x9;C195.452255,144.011749 214.779083,137.936966 231.626328,124.038017&#xA;&#x9;C249.666962,109.154564 260.414886,90.233528 264.913177,67.586357&#xA;&#x9;C266.363403,60.285011 266.327545,52.662563 268.059662,45.448261&#xA;&#x9;C272.305237,27.765118 284.240112,16.648781 301.301300,12.252806&#xA;&#x9;C317.908478,7.973805 333.657349,11.643458 346.698914,23.341251&#xA;&#x9;C353.838043,29.744761 358.049683,38.202606 359.945160,47.581432&#xA;&#x9;C363.180878,63.592037 359.955048,78.381149 349.408630,90.871613&#xA;&#x9;C343.048798,98.403770 334.437775,103.143852 324.563690,104.974670&#xA;&#x9;C313.612915,107.005135 302.322266,107.822128 291.720886,110.982979&#xA;&#x9;C272.163239,116.814194 256.774567,128.918518 244.762573,145.530777&#xA;&#x9;C233.892105,160.564362 228.546890,177.017975 227.766373,195.633484&#xA;&#x9;C227.041077,212.931915 217.833328,225.927277 202.806229,234.657501&#xA;&#x9;C195.899185,238.670227 188.381805,240.076950 180.028305,240.000000&#xA;z"></path>
<path fill="#191F32" opacity="1.000000" stroke="none" d="&#xA;M350.813843,159.317047&#xA;&#x9;C359.929474,170.666367 362.449280,183.574127 360.883118,197.215027&#xA;&#x9;C359.437134,209.809479 353.209106,220.151169 343.174835,227.951523&#xA;&#x9;C332.853363,235.975128 320.967133,239.272064 308.035553,237.928223&#xA;&#x9;C295.392975,236.614426 284.947418,231.105469 276.511505,221.218567&#xA;&#x9;C267.867401,211.087692 264.314758,199.530807 265.076965,186.636383&#xA;&#x9;C266.330627,165.427795 282.057434,146.866806 303.042633,142.950516&#xA;&#x9;C322.001648,139.412323 337.651062,145.051178 350.813843,159.317047&#xA;z"></path>
</svg>